<?xml version="1.0" encoding="UTF-8"?>
<svg version="1.1" xmlns="http://www.w3.org/2000/svg" width="35" height="60">
<path d="M0 0 C0.60328125 0.08378906 1.2065625 0.16757812 1.828125 0.25390625 C3.02695312 0.40666016 3.02695312 0.40666016 4.25 0.5625 C5.03890625 0.66691406 5.8278125 0.77132813 6.640625 0.87890625 C9.0065637 1.00033688 10.73094209 0.59738472 13 0 C14 1 14 1 14.1875 4.375 C14 8 14 8 12 11 C11.34 11 10.68 11 10 11 C10 11.66 10 12.32 10 13 C10.5775 13.20625 11.155 13.4125 11.75 13.625 C15.31539635 15.80385333 17.25498055 19.07536641 18.75 22.9375 C19.59734891 29.9281285 18.51050597 34.94173552 15 41 C13.36328125 42.765625 13.36328125 42.765625 12 44 C12.34224609 44.81404297 12.34224609 44.81404297 12.69140625 45.64453125 C12.97886719 46.35996094 13.26632813 47.07539062 13.5625 47.8125 C13.85253906 48.52019531 14.14257812 49.22789063 14.44140625 49.95703125 C15 52 15 52 14 55 C12.41693353 55.16918268 10.83353281 55.33523936 9.25 55.5 C8.36828125 55.5928125 7.4865625 55.685625 6.578125 55.78125 C4 56 4 56 0 56 C-0.79852392 53.67655299 -1.16592835 52.4495824 -0.30078125 50.10546875 C0.02535156 49.47253906 0.35148438 48.83960938 0.6875 48.1875 C1.96902279 45.13961956 1.96902279 45.13961956 1.3125 41.99609375 C0.28288096 40.28363708 -0.85413338 38.63695232 -2 37 C-2 36.34 -2 35.68 -2 35 C-2.66 35 -3.32 35 -4 35 C-4.19627391 33.41773035 -4.38165538 31.83410729 -4.5625 30.25 C-4.66691406 29.36828125 -4.77132813 28.4865625 -4.87890625 27.578125 C-4.99456676 25.11567549 -4.73638695 23.33461936 -4 21 C-3.34 21 -2.68 21 -2 21 C-1.731875 20.2575 -1.46375 19.515 -1.1875 18.75 C-0.05770579 16.13363446 1.20893202 14.19812889 3 12 C2.2884375 11.195625 2.2884375 11.195625 1.5625 10.375 C-0.30352666 7.53863948 -0.70775025 5.36087214 -1 2 C-0.67 1.34 -0.34 0.68 0 0 Z M6 16 C4.36323743 17.9600281 4.36323743 17.9600281 3 20 C5.31 20 7.62 20 10 20 C9.34 18.68 8.68 17.36 8 16 C7.34 16 6.68 16 6 16 Z M2 23 C1.67 24.32 1.34 25.64 1 27 C4.63 27 8.26 27 12 27 C12 26.01 12 25.02 12 24 C8.7 23.67 5.4 23.34 2 23 Z M1 30 C1 30.99 1 31.98 1 33 C4.63 33 8.26 33 12 33 C12.33 32.01 12.66 31.02 13 30 C9.04 30 5.08 30 1 30 Z M3 36 C3.99 37.32 4.98 38.64 6 40 C6.99 39.67 7.98 39.34 9 39 C8.67 38.01 8.34 37.02 8 36 C6.35 36 4.7 36 3 36 Z " fill="#20B1A1" transform="translate(10,2)"/>
<path d="M0 0 C4.22141034 1.50764655 5.80349864 4.21292869 8 8 C10.0663688 13.33811941 9.38479277 18.59223262 7.1875 23.75 C5.82761822 26.73027732 4.43199807 28.79796164 2 31 C2.22816406 31.54269531 2.45632812 32.08539063 2.69140625 32.64453125 C2.97886719 33.35996094 3.26632813 34.07539062 3.5625 34.8125 C3.85253906 35.52019531 4.14257812 36.22789063 4.44140625 36.95703125 C5 39 5 39 4 42 C2.41693353 42.16918268 0.83353281 42.33523936 -0.75 42.5 C-1.63171875 42.5928125 -2.5134375 42.685625 -3.421875 42.78125 C-6 43 -6 43 -10 43 C-10.95465783 40.83032311 -11.14401212 39.43671207 -10.3984375 37.17578125 C-9.64129615 35.4315257 -8.82390802 33.71372869 -8 32 C-6.68 32.33 -5.36 32.66 -4 33 C-4 33.66 -4 34.32 -4 35 C-3.38125 35.309375 -2.7625 35.61875 -2.125 35.9375 C-0.75 36.625 0.625 37.3125 2 38 C1.37755401 36.72791378 0.75193233 35.45738118 0.125 34.1875 C-0.22304688 33.47980469 -0.57109375 32.77210937 -0.9296875 32.04296875 C-2.0656486 29.78753582 -2.0656486 29.78753582 -4 27 C-3.34 26.67 -2.68 26.34 -2 26 C-2 25.01 -2 24.02 -2 23 C-0.68 23 0.64 23 2 23 C2 22.34 2 21.68 2 21 C-1.3 21 -4.6 21 -8 21 C-8 20.67 -8 20.34 -8 20 C-6.93458984 19.92652344 -6.93458984 19.92652344 -5.84765625 19.8515625 C-4.92855469 19.77679688 -4.00945313 19.70203125 -3.0625 19.625 C-1.68771484 19.52058594 -1.68771484 19.52058594 -0.28515625 19.4140625 C0.46894531 19.27742188 1.22304688 19.14078125 2 19 C2.33 18.34 2.66 17.68 3 17 C-0.96 17 -4.92 17 -9 17 C-9.33 17.66 -9.66 18.32 -10 19 C-10 18.01 -10 17.02 -10 16 C-4.39 16 1.22 16 7 16 C6.67 14.02 6.34 12.04 6 10 C5.67 10 5.34 10 5 10 C4.67 9.01 4.34 8.02 4 7 C4 9.31 4 11.62 4 14 C3.34 13.67 2.68 13.34 2 13 C2 12.67 2 12.34 2 12 C-0.97 11.67 -3.94 11.34 -7 11 C-7 10.67 -7 10.34 -7 10 C-4.03 10 -1.06 10 2 10 C2 9.34 2 8.68 2 8 C-1.3 8 -4.6 8 -8 8 C-8 7.67 -8 7.34 -8 7 C-5.36 7 -2.72 7 0 7 C-0.66 5.68 -1.32 4.36 -2 3 C-1.34 2.01 -0.68 1.02 0 0 Z " fill="#23A36A" transform="translate(20,15)"/>
<path d="M0 0 C0.66 0.33 1.32 0.66 2 1 C2.37400786 3.32716 2.70764733 5.66117862 3 8 C4.66342837 9.66342837 6.7825709 9.36048097 9.0625 9.5625 C9.98160156 9.64628906 10.90070312 9.73007812 11.84765625 9.81640625 C12.55792969 9.87699219 13.26820312 9.93757813 14 10 C14 10.66 14 11.32 14 12 C11.36 12.33 8.72 12.66 6 13 C6.49371094 13.59167969 6.98742187 14.18335938 7.49609375 14.79296875 C8.13675781 15.58316406 8.77742188 16.37335937 9.4375 17.1875 C10.07558594 17.96480469 10.71367187 18.74210937 11.37109375 19.54296875 C13.07176557 22.10825071 13.61830031 23.97328271 14 27 C7.38107686 24.19968637 3.18779577 19.74635731 -0.09375 13.48828125 C-1.59200822 9.37452915 -1.59870134 5.31064961 -1 1 C-0.67 0.67 -0.34 0.34 0 0 Z " fill="#1DD0B5" transform="translate(8,26)"/>
<path d="M0 0 C1.32 0 2.64 0 4 0 C4.6987693 1.76641683 5.38366583 3.53832664 6.0625 5.3125 C6.44535156 6.29863281 6.82820313 7.28476562 7.22265625 8.30078125 C8 11 8 11 7 14 C5.41693353 14.16918268 3.83353281 14.33523936 2.25 14.5 C1.36828125 14.5928125 0.4865625 14.685625 -0.421875 14.78125 C-3 15 -3 15 -7 15 C-7.95465783 12.83032311 -8.14401212 11.43671207 -7.3984375 9.17578125 C-6.64129615 7.4315257 -5.82390802 5.71372869 -5 4 C-3.68 4.33 -2.36 4.66 -1 5 C-1 5.66 -1 6.32 -1 7 C-0.071875 7.4640625 -0.071875 7.4640625 0.875 7.9375 C2.25 8.625 3.625 9.3125 5 10 C4.72285156 9.44570313 4.44570313 8.89140625 4.16015625 8.3203125 C2.7734375 5.546875 1.38671875 2.7734375 0 0 Z " fill="#1AAC9C" transform="translate(17,43)"/>
<path d="M0 0 C0.60328125 0.08378906 1.2065625 0.16757812 1.828125 0.25390625 C3.02695313 0.40666016 3.02695313 0.40666016 4.25 0.5625 C5.03890625 0.66691406 5.8278125 0.77132813 6.640625 0.87890625 C9.0065637 1.00033688 10.73094209 0.59738472 13 0 C14 1 14 1 14.0625 4.5625 C14.041875 5.696875 14.02125 6.83125 14 8 C13.67 8 13.34 8 13 8 C13 6.02 13 4.04 13 2 C12.01 2.33 11.02 2.66 10 3 C9.95875 3.928125 9.9175 4.85625 9.875 5.8125 C9 9 9 9 5.9375 10.875 C4.4834375 11.431875 4.4834375 11.431875 3 12 C0.17216424 8.80331609 -0.63139654 6.23893982 -1 2 C-0.67 1.34 -0.34 0.68 0 0 Z " fill="#259F72" transform="translate(10,2)"/>
<path d="M0 0 C0.99 0 1.98 0 3 0 C3.125 6.75 3.125 6.75 2 9 C1.34 9 0.68 9 0 9 C-0.061875 9.763125 -0.12375 10.52625 -0.1875 11.3125 C-1 14 -1 14 -3.3125 15.75 C-5.59474351 16.81150861 -7.56938896 17.44028573 -10 18 C-9.38080922 16.53919067 -8.75443308 15.08142545 -8.125 13.625 C-7.77695313 12.81289063 -7.42890625 12.00078125 -7.0703125 11.1640625 C-6 9 -6 9 -4 7 C-3.01 7 -2.02 7 -1 7 C-1.20625 6.401875 -1.4125 5.80375 -1.625 5.1875 C-2 3 -2 3 0 0 Z " fill="#11E7CE" transform="translate(20,4)"/>
<path d="M0 0 C1.32 0.33 2.64 0.66 4 1 C4 2.32 4 3.64 4 5 C4.99 5.33 5.98 5.66 7 6 C7 6.66 7 7.32 7 8 C5.35 8 3.7 8 2 8 C1.67 9.32 1.34 10.64 1 12 C-2 11 -2 11 -2.875 9.375 C-3.06657088 5.73515323 -1.56996079 3.26551844 0 0 Z " fill="#23AA6C" transform="translate(12,47)"/>
<path d="M0 0 C2.63829259 1.31914629 2.98263229 2.23857335 4 5 C4.0777346 7.33203812 4.08967728 9.66839059 4 12 C3.34 12 2.68 12 2 12 C1.67 12.66 1.34 13.32 1 14 C1 13.34 1 12.68 1 12 C-3.62 12 -8.24 12 -13 12 C-13 11.34 -13 10.68 -13 10 C-8.38 10 -3.76 10 1 10 C0.67 6.7 0.34 3.4 0 0 Z " fill="#46DF96" transform="translate(23,19)"/>
<path d="M0 0 C4.42116304 1.35091093 6.48076658 3.13117725 9 7 C9.75 9.8125 9.75 9.8125 10 12 C6.17475764 10.549046 4.80909034 8.61818068 3 5 C3 4.34 3 3.68 3 3 C2.01 2.67 1.02 2.34 0 2 C0 1.34 0 0.68 0 0 Z " fill="#0CE6D8" transform="translate(12,41)"/>
<path d="M0 0 C2 1 4 2 6 3 C5.34 4.32 4.68 5.64 4 7 C2.02 7 0.04 7 -2 7 C-2 6.34 -2 5.68 -2 5 C-0.35 5 1.3 5 3 5 C3 4.34 3 3.68 3 3 C1.68 2.67 0.36 2.34 -1 2 C-0.67 1.34 -0.34 0.68 0 0 Z " fill="#087963" transform="translate(16,50)"/>
<path d="M0 0 C0.66 0.33 1.32 0.66 2 1 C2.125 7.75 2.125 7.75 1 10 C0.67 10.99 0.34 11.98 0 13 C-1.25069801 10.49860398 -1.13302467 8.72607309 -1.125 5.9375 C-1.12757813 5.03902344 -1.13015625 4.14054687 -1.1328125 3.21484375 C-1 1 -1 1 0 0 Z " fill="#13D6CD" transform="translate(8,26)"/>
<path d="M0 0 C0.99 1.485 0.99 1.485 2 3 C2.33 2.67 2.66 2.34 3 2 C4.66617115 1.95936168 6.33388095 1.957279 8 2 C8 2.66 8 3.32 8 4 C6.35 4 4.7 4 3 4 C3 4.99 3 5.98 3 7 C2.01 6.67 1.02 6.34 0 6 C0 4.02 0 2.04 0 0 Z " fill="#47D393" transform="translate(11,51)"/>
<path d="M0 0 C0.99 0 1.98 0 3 0 C3.125 3.375 3.125 3.375 3 7 C2.34 7.66 1.68 8.32 1 9 C1 7.68 1 6.36 1 5 C0.01 4.34 -0.98 3.68 -2 3 C-1.34 2.01 -0.68 1.02 0 0 Z " fill="#14C3BD" transform="translate(20,4)"/>
<path d="M0 0 C0.33 0.66 0.66 1.32 1 2 C1.99 2.33 2.98 2.66 4 3 C2.68 4.32 1.36 5.64 0 7 C-0.99 6.67 -1.98 6.34 -3 6 C-2.01 4.02 -1.02 2.04 0 0 Z " fill="#17DCD3" transform="translate(13,15)"/>
</svg>
